<?xml version="1.0" encoding="UTF-8"?>
<svg xmlns="http://www.w3.org/2000/svg" xmlns:xlink="http://www.w3.org/1999/xlink" width="128pt" height="128pt" viewBox="0 0 128 128" version="1.1">
<g id="surface6009130">
<path style=" stroke:none;fill-rule:nonzero;fill:rgb(100%,100%,100%);fill-opacity:1;" d="M 64 14 C 36.386719 14 14 36.386719 14 64 C 14 91.613281 36.386719 114 64 114 C 91.613281 114 114 91.613281 114 64 C 114 36.386719 91.613281 14 64 14 Z M 64 14 "/>
<path style=" stroke:none;fill-rule:nonzero;fill:rgb(6.27451%,78.823531%,58.431375%);fill-opacity:1;" d="M 64 117 C 34.800781 117 11 93.199219 11 64 C 11 34.800781 34.800781 11 64 11 C 93.199219 11 117 34.800781 117 64 C 117 93.199219 93.199219 117 64 117 Z M 64 17 C 38.101562 17 17 38.101562 17 64 C 17 89.898438 38.101562 111 64 111 C 89.898438 111 111 89.898438 111 64 C 111 38.101562 89.898438 17 64 17 Z M 64 17 "/>
<path style=" stroke:none;fill-rule:nonzero;fill:rgb(6.27451%,78.823531%,58.431375%);fill-opacity:1;" d="M 86.5 52 L 41.5 52 C 39.800781 52 38.5 50.699219 38.5 49 C 38.5 47.300781 39.800781 46 41.5 46 L 86.5 46 C 88.199219 46 89.5 47.300781 89.5 49 C 89.5 50.699219 88.199219 52 86.5 52 Z M 86.5 67 L 41.5 67 C 39.800781 67 38.5 65.699219 38.5 64 C 38.5 62.300781 39.800781 61 41.5 61 L 86.5 61 C 88.199219 61 89.5 62.300781 89.5 64 C 89.5 65.699219 88.199219 67 86.5 67 Z M 86.5 67 "/>
<path style=" stroke:none;fill-rule:nonzero;fill:rgb(6.27451%,78.823531%,58.431375%);fill-opacity:1;" d="M 86.5 82 L 41.5 82 C 39.800781 82 38.5 80.699219 38.5 79 C 38.5 77.300781 39.800781 76 41.5 76 L 86.5 76 C 88.199219 76 89.5 77.300781 89.5 79 C 89.5 80.699219 88.199219 82 86.5 82 Z M 86.5 82 "/>
</g>
</svg>
